<svg width="5" height="9" viewBox="0 0 5 9" fill="none" xmlns="http://www.w3.org/2000/svg">
<path d="M4.7564 4.7564L0.693898 8.8189C0.656153 8.85664 0.611344 8.88658 0.562028 8.90701C0.512712 8.92744 0.459855 8.93795 0.406476 8.93795C0.353097 8.93795 0.30024 8.92744 0.250924 8.90701C0.201608 8.88658 0.156799 8.85664 0.119054 8.8189C0.081309 8.78115 0.0513683 8.73634 0.0309409 8.68703C0.0105136 8.63771 0 8.58486 0 8.53148C0 8.4781 0.0105136 8.42524 0.0309409 8.37592C0.0513683 8.32661 0.081309 8.2818 0.119054 8.24405L3.89464 4.46898L0.119054 0.693898C0.0428248 0.617669 -8.03203e-10 0.51428 0 0.406476C8.03204e-10 0.298672 0.0428248 0.195283 0.119054 0.119054C0.195283 0.042825 0.298672 8.03203e-10 0.406476 0C0.51428 -8.03203e-10 0.617669 0.042825 0.693898 0.119054L4.7564 4.18155C4.79417 4.21928 4.82413 4.26409 4.84458 4.31341C4.86502 4.36272 4.87555 4.41559 4.87555 4.46898C4.87555 4.52236 4.86502 4.57523 4.84458 4.62455C4.82413 4.67386 4.79417 4.71867 4.7564 4.7564Z" fill="#737373"/>
</svg>
