<svg width="151" height="151" viewBox="0 0 151 151" fill="none" xmlns="http://www.w3.org/2000/svg">
<circle cx="75.5" cy="75.5" r="75.5" fill="#CAFFC9"/>
<path d="M117.003 65.2086C115.404 63.52 113.75 61.78 113.127 60.25C112.55 58.8486 112.516 56.5257 112.482 54.2757C112.419 50.0929 112.351 45.3529 109.089 42.0571C105.828 38.7614 101.137 38.6929 96.998 38.6286C94.7714 38.5943 92.4728 38.56 91.0859 37.9771C89.5761 37.3471 87.85 35.6757 86.179 34.06C83.2527 31.2186 79.9277 28 75.5 28C71.0723 28 67.7516 31.2186 64.821 34.06C63.15 35.6757 61.4281 37.3471 59.9141 37.9771C58.5357 38.56 56.2286 38.5943 54.002 38.6286C49.8627 38.6929 45.1721 38.7614 41.9107 42.0571C38.6493 45.3529 38.6027 50.0929 38.5179 54.2757C38.4839 56.5257 38.45 58.8486 37.8732 60.25C37.2498 61.7757 35.5958 63.52 33.9969 65.2086C31.185 68.1657 28 71.5257 28 76C28 80.4743 31.185 83.83 33.9969 86.7914C35.5958 88.48 37.2498 90.22 37.8732 91.75C38.45 93.1514 38.4839 95.4743 38.5179 97.7243C38.5815 101.907 38.6493 106.647 41.9107 109.943C45.1721 113.239 49.8627 113.307 54.002 113.371C56.2286 113.406 58.5272 113.44 59.9141 114.023C61.4239 114.653 63.15 116.324 64.821 117.94C67.7473 120.781 71.0723 124 75.5 124C79.9277 124 83.2484 120.781 86.179 117.94C87.85 116.324 89.5719 114.653 91.0859 114.023C92.4728 113.44 94.7714 113.406 96.998 113.371C101.137 113.307 105.828 113.239 109.089 109.943C112.351 106.647 112.419 101.907 112.482 97.7243C112.516 95.4743 112.55 93.1514 113.127 91.75C113.75 90.2243 115.404 88.48 117.003 86.7914C119.815 83.8343 123 80.4743 123 76C123 71.5257 119.815 68.17 117.003 65.2086ZM112.105 82.0471C110.073 84.19 107.97 86.4057 106.854 89.1271C105.785 91.7414 105.739 94.7286 105.696 97.6214C105.654 100.621 105.607 103.763 104.288 105.091C102.969 106.42 99.8819 106.471 96.8962 106.514C94.0335 106.557 91.0775 106.604 88.4904 107.684C85.7973 108.811 83.6047 110.937 81.4841 112.99C79.3636 115.043 77.1964 117.143 75.5 117.143C73.8036 117.143 71.6194 115.034 69.5158 112.99C67.4123 110.946 65.2027 108.811 62.5096 107.684C59.9225 106.604 56.9665 106.557 54.1038 106.514C51.135 106.471 48.0263 106.424 46.7116 105.091C45.3969 103.759 45.346 100.639 45.3036 97.6214C45.2612 94.7286 45.2145 91.7414 44.1458 89.1271C43.0304 86.4057 40.9268 84.19 38.8953 82.0471C36.8638 79.9043 34.7857 77.7143 34.7857 76C34.7857 74.2857 36.8723 72.0786 38.8953 69.9529C40.9183 67.8271 43.0304 65.5943 44.1458 62.8729C45.2145 60.2586 45.2612 57.2714 45.3036 54.3786C45.346 51.3786 45.3926 48.2371 46.7116 46.9086C48.0306 45.58 51.1181 45.5286 54.1038 45.4857C56.9665 45.4429 59.9225 45.3957 62.5096 44.3157C65.2027 43.1886 67.3953 41.0629 69.5158 39.01C71.6364 36.9571 73.8036 34.8571 75.5 34.8571C77.1964 34.8571 79.3806 36.9657 81.4841 39.01C83.5877 41.0543 85.7973 43.1886 88.4904 44.3157C91.0775 45.3957 94.0335 45.4429 96.8962 45.4857C99.865 45.5286 102.974 45.5757 104.288 46.9086C105.603 48.2414 105.654 51.3614 105.696 54.3786C105.739 57.2714 105.785 60.2586 106.854 62.8729C107.97 65.5943 110.073 67.81 112.105 69.9529C114.136 72.0957 116.214 74.2857 116.214 76C116.214 77.7143 114.128 79.9214 112.105 82.0471ZM94.8647 63.2886C95.1802 63.607 95.4304 63.9851 95.6012 64.4013C95.7719 64.8176 95.8598 65.2637 95.8598 65.7143C95.8598 66.1649 95.7719 66.611 95.6012 67.0272C95.4304 67.4434 95.1802 67.8216 94.8647 68.14L71.1147 92.14C70.7996 92.4588 70.4254 92.7117 70.0135 92.8842C69.6017 93.0567 69.1602 93.1456 68.7143 93.1456C68.2684 93.1456 67.8269 93.0567 67.415 92.8842C67.0031 92.7117 66.6289 92.4588 66.3138 92.14L56.1353 81.8543C55.4986 81.2109 55.141 80.3384 55.141 79.4286C55.141 78.5188 55.4986 77.6462 56.1353 77.0029C56.7719 76.3595 57.6354 75.9981 58.5357 75.9981C59.4361 75.9981 60.2995 76.3595 60.9362 77.0029L68.7143 84.8671L90.0638 63.2886C90.3789 62.9698 90.7531 62.7169 91.165 62.5444C91.5769 62.3718 92.0184 62.283 92.4643 62.283C92.9102 62.283 93.3517 62.3718 93.7635 62.5444C94.1754 62.7169 94.5496 62.9698 94.8647 63.2886Z" fill="#3EA93C"/>
</svg>
